<?xml version="1.0" encoding="utf-8"?>
<!-- Generator: Adobe Illustrator 24.0.1, SVG Export Plug-In . SVG Version: 6.00 Build 0)  -->
<svg version="1.1" id="Camada_1" xmlns="http://www.w3.org/2000/svg" xmlns:xlink="http://www.w3.org/1999/xlink" x="0px" y="0px"
	 viewBox="0 0 227 206" style="enable-background:new 0 0 227 206;" xml:space="preserve">
<style type="text/css">
	.st0{fill:#FFFFFF;}
</style>
<g>
	<path class="st0" d="M105.92,195c-3.24-0.45-6.51-0.74-9.72-1.37c-29.01-5.68-50-21.9-62.9-48.43c-6.16-12.68-8.57-26.22-7.9-40.27
		c1.77-36.71,27.11-68.41,62.61-78.35c17.14-4.8,34.15-4.08,51.38,1.63c-1.23,1.23-2.28,2.31-3.35,3.37
		c-2.45,2.43-4.13,5.24-4.29,8.77c-0.09,1.95-0.12,3.91-0.15,5.87c-0.02,1.66,0,3.33,0,5.22c-17.69-5.75-34.66-4.47-50.78,4.62
		c-11.98,6.76-20.72,16.62-26.08,29.27c-10.19,24.08-4.35,52.57,16.89,70.59c19.46,16.52,46.74,18.98,69.02,6.89
		c22.25-12.08,39.54-42.02,28.03-74.77c1.2,0,2.31,0.02,3.42,0c2.53-0.05,5.07-0.06,7.6-0.2c3.34-0.19,6-1.85,8.28-4.17
		c1.16-1.19,2.26-2.44,3.38-3.67c0.19,0.05,0.38,0.11,0.57,0.16c0.94,3.41,2.03,6.79,2.8,10.23c9.41,42.12-13.59,84.38-54.06,99.35
		c-7.38,2.73-15.01,4.41-22.87,4.96c-0.51,0.04-1,0.2-1.51,0.3C112.84,195,109.38,195,105.92,195z"/>
	<path class="st0" d="M155.72,90.88c7.86,17.59,3.82,41.86-14.56,56.16c-19.81,15.42-45.99,13.89-64.01-3.35
		c-16.58-15.86-19.2-42.89-6.06-61.77c14.29-20.53,39.34-25.32,57.86-17.29c-0.55,0.32-1.2,0.54-1.64,0.98
		c-5.04,4.99-10.06,9.99-15.04,15.04c-0.86,0.87-1.72,1.31-2.97,1.41c-13.93,1.18-24.12,11.35-25.35,25.22
		c-1.25,14.16,9.77,27.48,23.94,28.94c16.38,1.69,29.86-10.19,30.49-26.83c0.03-0.68,0.23-1.53,0.68-1.98
		c5.34-5.42,10.73-10.79,16.11-16.16C155.33,91.11,155.53,91.01,155.72,90.88z"/>
	<path class="st0" d="M165.76,75.25c-3.4,0-6.81,0.09-10.2-0.04c-1.75-0.07-2.97,0.45-4.22,1.71
		c-11.32,11.42-22.72,22.77-34.08,34.15c-1.53,1.54-3.22,2.65-5.47,2.47c-2.37-0.19-4.17-1.37-5.12-3.57
		c-0.93-2.17-0.64-4.3,0.74-6.22c0.5-0.7,1.14-1.3,1.75-1.91c11.33-11.34,22.65-22.68,34-33.99c0.89-0.88,1.28-1.75,1.27-3.01
		c-0.06-7.32-0.06-14.64,0.02-21.96c0.01-0.86,0.41-1.94,1.01-2.55c6.71-6.82,13.47-13.59,20.31-20.29
		c0.97-0.95,2.35-1.79,3.66-2.05c3.15-0.63,5.96,1.92,6.06,5.29c0.17,6.17,0.33,12.33,0.37,18.5c0.01,1.62,0.56,2.01,2.09,2.02
		c5.88,0.04,11.76,0.25,17.64,0.32c2.59,0.03,4.65,0.86,5.71,3.36c1.1,2.59,0.16,4.68-1.71,6.54c-6.78,6.75-13.52,13.54-20.33,20.27
		c-0.54,0.53-1.47,0.9-2.24,0.92C173.25,75.3,169.5,75.25,165.76,75.25z"/>
</g>
</svg>
