<svg width="373" height="616" fill="none" xmlns="http://www.w3.org/2000/svg"><path d="M270.8 381.265a522.907 522.907 0 009.738-7.934l49.882-49.81a272.041 272.041 0 006.341-8.111L270.8 381.265zm-54.909 38.357a725.104 725.104 0 004.75-2.951l138.957-138.76c.505-1.085.998-2.17 1.478-3.255L215.891 419.622zm-97.565 196.252h1.781l55.528-55.449c-.745.164-1.503.316-2.261.48l-55.048 54.969zm-65.948-.025h1.781l61.464-61.377c-.341-.252-.669-.517-.998-.782l-62.247 62.159zm16.484 0h1.78l55.768-55.688c-.442-.164-.871-.316-1.301-.48l-56.247 56.168zm65.948.025h1.781l62.589-62.499c-.935.365-1.895.706-2.842 1.059l-61.528 61.44zm-49.452-.013h1.781l52.711-52.635c-.53-.064-1.061-.127-1.579-.202l-52.913 52.837zm16.484 0h1.781l52.534-52.459c-.644.051-1.276.088-1.907.126l-52.408 52.333zM-8 544.381v1.779l371.678-371.149c-.177-.416-.354-.833-.543-1.249L-8 544.381zm183.294-100.68c1.515-.921 3.031-1.841 4.56-2.762l189.154-188.886c.215-.807.43-1.602.619-2.409L175.294 443.701zM-8 560.854v1.779L368.048 187.12c-.138-.454-.265-.909-.416-1.375L-8 560.854zm0-32.933v1.778l366.348-365.826c-.203-.391-.43-.769-.632-1.148L-8 527.921zm137.151-54.616a99.873 99.873 0 016.973-5.184l236.459-236.123c.063-.656.139-1.312.19-1.968L129.151 473.305zM-8 577.327v1.779l379.295-378.755c-.089-.492-.202-.996-.303-1.488L-8 577.327zm0 16.461v1.778l381-380.457c-.025-.555-.076-1.11-.114-1.665L-8 593.788zm0-82.34v1.778l360.146-359.633c-.24-.353-.493-.706-.733-1.059L-8 511.448zm307.637 104.527h1.781l39.915-39.859c-.025-.555-.063-1.122-.101-1.69l-41.595 41.549zm-192.148-69.853c-.24-.353-.48-.719-.708-1.072l-70.9 70.799h1.781l69.827-69.727zm233.844 46.468c.025-.618.063-1.249.088-1.88l-25.3 25.265h1.781l23.431-23.385zM116.141 486.297L-8 610.261v1.778l119.392-119.221a79.763 79.763 0 014.749-6.521zm35.153 129.589h1.781l77.115-77.004-3.714 1.93-75.182 75.074zm-48.946-81.104c-.127-.479-.24-.958-.341-1.438l-82.622 82.505h1.78l81.183-81.067zm-.935-15.527c.076-.681.177-1.375.278-2.068l-98.79 98.662h1.794l96.718-96.594zm181.74 96.707h1.781l54.795-54.717c-.088-.504-.164-1.021-.253-1.526l-56.323 56.243zm-82.407-.05h1.781l101.139-100.996c-.505-.101-.997-.201-1.503-.29L200.746 615.912zm-16.484-.013h1.781l101.493-101.348c-.707.1-1.414.214-2.134.34l-101.14 101.008zm82.407.051h1.781l68.121-68.024c-.139-.455-.303-.883-.455-1.337l-69.447 69.361zm-98.891-.051h1.781l93.523-93.389c-1.099.492-2.185.983-3.259 1.475l-92.045 91.914zm82.407.038h1.781l79.704-79.591-.644-1.135-80.841 80.726zm-16.471-.013h1.781l89.329-89.202c-.291-.302-.568-.618-.872-.92l-90.238 90.122zm-16.484 0h1.781l96.592-96.454c-.379-.215-.77-.429-1.149-.644l-97.224 97.098zM-8 99.721v1.779l28.964-28.923-.758-1.021L-8 99.72zm0 65.88v1.779l63.422-63.332c-.366-.227-.745-.442-1.111-.669L-8 165.601zm0-16.473v1.779l53.57-53.494c-.341-.252-.67-.517-1.01-.77L-8 149.129zm0-16.46v1.778l44.563-44.5c-.315-.29-.619-.567-.922-.858L-8 132.668zm0 98.813v1.778L103.838 121.58l-1.516-.264L-8 231.481zm0-49.407v1.779l74.12-74.016c-.403-.189-.795-.391-1.2-.592L-8 182.074zm0 32.934v1.778l98.285-98.144c-.468-.127-.948-.253-1.415-.379L-8 215.008zm0-98.813v1.778l36.366-36.314c-.278-.315-.569-.63-.847-.946L-8 116.195zm0 82.34v1.778l85.742-85.619c-.442-.164-.872-.316-1.301-.48L-8 198.535zm0 296.44v1.778l353.034-352.532c-.278-.327-.53-.655-.808-.971L-8 494.975zm347.565 114.643c.038-.227.063-.454.101-.682L332.592 616h1.781l4.927-4.919c.088-.492.189-.971.265-1.463zM-8 66.788v1.778L8.459 52.131c-.202-.404-.392-.794-.594-1.198L-8 66.788zm0 16.473v1.779l22.32-22.288c-.228-.366-.443-.745-.67-1.11L-8 83.26zm0-32.946v1.778L3.38 40.73c-.163-.43-.34-.858-.504-1.287L-8 50.315zm0 378.792v1.779l315.948-315.499-1.212-.567L-8 429.107zm0-16.473v1.779l304.277-303.831a53.69 53.69 0 00-1.339-.442L-8 412.634zm0-32.933v1.778l276.981-276.586c-.556-.038-1.112-.088-1.668-.126L-8 379.701zm0 16.46v1.779l291.393-290.966c-.493-.101-.998-.189-1.49-.29L-8 396.161zm0 49.407v1.778L318.584 121.24c-.366-.227-.745-.442-1.111-.669L-8 445.568zm0 32.946v1.779l345.076-344.586-.909-.87L-8 478.514zm0-16.473v1.779l336.26-335.781c-.329-.265-.67-.518-1.011-.77L-8 462.041zm0-164.693v1.778l177.193-176.928c-.682.089-1.364.177-2.034.253L-8 297.348zm0-49.407v1.779l126.427-126.235a69.082 69.082 0 01-1.629-.164L-8 247.941zm0 32.947v1.778l159.029-158.803c-.632.038-1.263.076-1.895.101L-8 280.888zm0-16.474v1.779l142.128-141.926-1.756-.038L-8 264.414zm0 98.814v1.778L252.547 104.83c-.644.05-1.301.113-1.958.164L-8 363.228zm0-49.407v1.779l196.734-196.441c-.733.138-1.466.277-2.198.403L-8 313.821zm0 32.934v1.778L232.388 108.5c-.847.253-1.68.492-2.527.745L-8 346.755zm0-16.461v1.779L209.752 114.63l-2.349.568L-8 330.294z" fill="#4A578E" fill-opacity=".2"/></svg>